<?xml version="1.0" encoding="UTF-8"?>
<svg id="Layer_1" data-name="Layer 1" xmlns="http://www.w3.org/2000/svg" viewBox="0 0 610.45 1144.6">
  <defs>
    <style>
      .cls-1, .cls-2 {
        stroke-width: 0px;
      }

      .cls-2 {
        fill: #fff;
      }
    </style>
  </defs>
  <g>
    <path class="cls-2" d="M610.45,729.89v414.71H0C0,763.07,0,381.53,0,0c203.48,0,406.97,0,610.45,0,0,193.53,0,387.06,0,580.6-7.21.89-14.91.49-21.51,2.99-8.38,3.18-16.25,3.41-24.66,1.61-10.5-2.25-20.92-5.71-31.83-4.43-6.53.76-13.17,1.81-19.34,3.94-8.87,3.07-10.35,11.18-3.91,18.03,1.51,1.6,3.24,3,4.94,4.4,6.69,5.54,13.65,10.78,19.97,16.7,2.39,2.24,4.53,5.95,4.74,9.12.79,12.39.37,24.85,1.15,37.24.65,10.28-3.82,17.13-11.64,23.12-6.52,5-12.78,10.6-18.11,16.83-4.99,5.82-2.89,10.47,4.58,12.38,11.2,2.87,22.49,1.74,33.74.3,9.03-1.15,18.02-2.63,27.06-3.64,1.81-.2,4.09.63,5.62,1.72,5.87,4.2,12.23,6.83,19.45,7.46,3.27.29,6.51,1,9.76,1.52Z"/>
    <path class="cls-1" d="M610.45,729.89c-3.25-.52-6.49-1.23-9.76-1.52-7.23-.63-13.58-3.26-19.45-7.46-1.53-1.09-3.81-1.92-5.62-1.72-9.04,1.01-18.03,2.49-27.06,3.64-11.25,1.43-22.54,2.57-33.74-.3-7.47-1.92-9.56-6.56-4.58-12.38,5.33-6.23,11.59-11.83,18.11-16.83,7.82-5.99,12.29-12.84,11.64-23.12-.78-12.39-.36-24.86-1.15-37.24-.2-3.17-2.34-6.88-4.74-9.12-6.33-5.92-13.29-11.16-19.97-16.7-1.7-1.41-3.43-2.8-4.94-4.4-6.44-6.84-4.96-14.96,3.91-18.03,6.17-2.13,12.82-3.18,19.34-3.94,10.92-1.28,21.33,2.19,31.83,4.43,8.41,1.8,16.28,1.57,24.66-1.61,6.6-2.5,14.3-2.1,21.51-2.99v149.3ZM571.49,629.89c-.04,4.36,1.73,8.48,4.91,11.41,5.06,4.67,12.98,2.51,14.02-4.25.55-3.58-.04-7.71-1.37-11.1-1.85-4.69-6.91-6.71-11.23-5.62-3.87.98-6.28,4.61-6.32,9.56ZM570.34,691.88c-.02,6.73,3.75,11.38,9.3,11.49,5.5.11,9.4-4.52,9.47-11.25.07-6.04-5.4-11.57-11.31-11.42-4.32.1-7.45,4.79-7.46,11.19Z"/>
    <path class="cls-2" d="M571.49,629.89c.05-4.94,2.45-8.58,6.32-9.56,4.32-1.09,9.38.93,11.23,5.62,1.33,3.39,1.92,7.52,1.37,11.1-1.04,6.76-8.96,8.91-14.02,4.25-3.18-2.93-4.95-7.05-4.91-11.41Z"/>
    <path class="cls-2" d="M570.34,691.88c.01-6.4,3.14-11.09,7.46-11.19,5.91-.14,11.37,5.38,11.31,11.42-.08,6.73-3.97,11.36-9.47,11.25-5.55-.11-9.31-4.76-9.3-11.49Z"/>
  </g>
  <path class="cls-1" d="M573.87,631.04c1.46.65,4.25,1.66,7.89,1.56,3.52-.1,6.19-1.2,7.6-1.91-1.34,2.93-4.18,4.88-7.36,5.06-3.37.19-6.57-1.66-8.13-4.7Z"/>
  <path class="cls-1" d="M572.6,691.29c1.46.65,4.25,1.66,7.89,1.56,3.52-.1,6.19-1.2,7.6-1.91-1.34,2.93-4.18,4.88-7.36,5.06-3.37.19-6.57-1.66-8.13-4.7Z"/>
</svg>